<?xml version="1.0" encoding="UTF-8" standalone="no"?>
<!-- Created with Inkscape (http://www.inkscape.org/) -->

<svg
   width="158.33522mm"
   height="158.33522mm"
   viewBox="0 0 158.33522 158.33521"
   version="1.1"
   id="svg2476"
   xml:space="preserve"
   inkscape:version="1.3 (0e150ed6c4, 2023-07-21)"
   sodipodi:docname="biblizap-snowball-round-fill.svg"
   xmlns:inkscape="http://www.inkscape.org/namespaces/inkscape"
   xmlns:sodipodi="http://sodipodi.sourceforge.net/DTD/sodipodi-0.dtd"
   xmlns="http://www.w3.org/2000/svg"
   xmlns:svg="http://www.w3.org/2000/svg"
   xmlns:ooo="http://xml.openoffice.org/svg/export"><sodipodi:namedview
     id="namedview2478"
     pagecolor="#ffffff"
     bordercolor="#999999"
     borderopacity="1"
     inkscape:showpageshadow="0"
     inkscape:pageopacity="0"
     inkscape:pagecheckerboard="0"
     inkscape:deskcolor="#d1d1d1"
     inkscape:document-units="mm"
     showgrid="false"
     inkscape:zoom="0.74564394"
     inkscape:cx="136.79451"
     inkscape:cy="179.03988"
     inkscape:window-width="1920"
     inkscape:window-height="1011"
     inkscape:window-x="0"
     inkscape:window-y="0"
     inkscape:window-maximized="1"
     inkscape:current-layer="layer1" /><defs
     id="defs2473"><clipPath
       id="presentation_clip_path_shrink"
       clipPathUnits="userSpaceOnUse">&#10;   <rect
   x="17"
   y="11"
   width="17923"
   height="11940"
   id="rect5" />&#10;  </clipPath><clipPath
       clipPathUnits="userSpaceOnUse"
       id="clipPath1779"><g
         id="g1783"><rect
           x="0"
           y="0"
           width="17958"
           height="11963"
           id="rect1781" /></g></clipPath><clipPath
       clipPathUnits="userSpaceOnUse"
       id="clipPath1785"><g
         id="g1789"><rect
           x="0"
           y="0"
           width="17958"
           height="11963"
           id="rect1787" /></g></clipPath><clipPath
       clipPathUnits="userSpaceOnUse"
       id="clipPath1791"><g
         id="g1795"><rect
           x="0"
           y="0"
           width="17958"
           height="11963"
           id="rect1793" /></g></clipPath><clipPath
       clipPathUnits="userSpaceOnUse"
       id="clipPath1797"><g
         id="g1801"><rect
           x="0"
           y="0"
           width="17958"
           height="11963"
           id="rect1799" /></g></clipPath><clipPath
       clipPathUnits="userSpaceOnUse"
       id="clipPath1803"><g
         id="g1807"><rect
           x="0"
           y="0"
           width="17958"
           height="11963"
           id="rect1805" /></g></clipPath><clipPath
       clipPathUnits="userSpaceOnUse"
       id="clipPath1809"><g
         id="g1813"><rect
           x="0"
           y="0"
           width="17958"
           height="11963"
           id="rect1811" /></g></clipPath><clipPath
       clipPathUnits="userSpaceOnUse"
       id="clipPath1815"><g
         id="g1819"><rect
           x="0"
           y="0"
           width="17958"
           height="11963"
           id="rect1817" /></g></clipPath><clipPath
       clipPathUnits="userSpaceOnUse"
       id="clipPath1821"><g
         id="g1825"><rect
           x="0"
           y="0"
           width="17958"
           height="11963"
           id="rect1823" /></g></clipPath><clipPath
       clipPathUnits="userSpaceOnUse"
       id="clipPath1827"><g
         id="g1831"><rect
           x="0"
           y="0"
           width="17958"
           height="11963"
           id="rect1829" /></g></clipPath><clipPath
       clipPathUnits="userSpaceOnUse"
       id="clipPath1833"><g
         id="g1837"><rect
           x="0"
           y="0"
           width="17958"
           height="11963"
           id="rect1835" /></g></clipPath><clipPath
       clipPathUnits="userSpaceOnUse"
       id="clipPath1839"><g
         id="g1843"><rect
           x="0"
           y="0"
           width="17958"
           height="11963"
           id="rect1841" /></g></clipPath><g
       ooo:slide="id1"
       ooo:id-list="id3 id4 id5 id6 id7 id8 id9 id10 id11 id12 id13 id14 id15 id16 id17 id18 id19 id20"
       id="g10" /><g
       id="bullet-char-template-57356"
       transform="matrix(4.8828125e-4,0,0,-4.8828125e-4,0,0)">&#10;   <path
   d="M 580,1141 1163,571 580,0 -4,571 Z"
   id="path14" />&#10;  </g><g
       id="bullet-char-template-57354"
       transform="matrix(4.8828125e-4,0,0,-4.8828125e-4,0,0)">&#10;   <path
   d="M 8,1128 H 1137 V 0 H 8 Z"
   id="path17" />&#10;  </g><g
       id="bullet-char-template-10146"
       transform="matrix(4.8828125e-4,0,0,-4.8828125e-4,0,0)">&#10;   <path
   d="M 174,0 602,739 174,1481 1456,739 Z M 1358,739 309,1346 659,739 Z"
   id="path20" />&#10;  </g><g
       id="bullet-char-template-10132"
       transform="matrix(4.8828125e-4,0,0,-4.8828125e-4,0,0)">&#10;   <path
   d="M 2015,739 1276,0 H 717 l 543,543 H 174 v 393 h 1086 l -543,545 h 557 z"
   id="path23" />&#10;  </g><g
       id="bullet-char-template-10007"
       transform="matrix(4.8828125e-4,0,0,-4.8828125e-4,0,0)">&#10;   <path
   d="m 0,-2 c -7,16 -16,29 -25,39 l 381,530 c -94,256 -141,385 -141,387 0,25 13,38 40,38 9,0 21,-2 34,-5 21,4 42,12 65,25 l 27,-13 111,-251 280,301 64,-25 24,25 c 21,-10 41,-24 62,-43 C 886,937 835,863 770,784 769,783 710,716 594,584 L 774,223 c 0,-27 -21,-55 -63,-84 l 16,-20 C 717,90 699,76 672,76 641,76 570,178 457,381 L 164,-76 c -22,-34 -53,-51 -92,-51 -42,0 -63,17 -64,51 -7,9 -10,24 -10,44 0,9 1,19 2,30 z"
   id="path26" />&#10;  </g><g
       id="bullet-char-template-10004"
       transform="matrix(4.8828125e-4,0,0,-4.8828125e-4,0,0)">&#10;   <path
   d="M 285,-33 C 182,-33 111,30 74,156 52,228 41,333 41,471 c 0,78 14,145 41,201 34,71 87,106 158,106 53,0 88,-31 106,-94 l 23,-176 c 8,-64 28,-97 59,-98 l 735,706 c 11,11 33,17 66,17 42,0 63,-15 63,-46 V 965 c 0,-36 -10,-64 -30,-84 L 442,47 C 390,-6 338,-33 285,-33 Z"
   id="path29" />&#10;  </g><g
       id="bullet-char-template-9679"
       transform="matrix(4.8828125e-4,0,0,-4.8828125e-4,0,0)">&#10;   <path
   d="M 813,0 C 632,0 489,54 383,161 276,268 223,411 223,592 c 0,181 53,324 160,431 106,107 249,161 430,161 179,0 323,-54 432,-161 108,-107 162,-251 162,-431 0,-180 -54,-324 -162,-431 C 1136,54 992,0 813,0 Z"
   id="path32" />&#10;  </g><g
       id="bullet-char-template-8226"
       transform="matrix(4.8828125e-4,0,0,-4.8828125e-4,0,0)">&#10;   <path
   d="m 346,457 c -73,0 -137,26 -191,78 -54,51 -81,114 -81,188 0,73 27,136 81,188 54,52 118,78 191,78 73,0 134,-26 185,-79 51,-51 77,-114 77,-187 0,-75 -25,-137 -76,-188 -50,-52 -112,-78 -186,-78 z"
   id="path35" />&#10;  </g><g
       id="bullet-char-template-8211"
       transform="matrix(4.8828125e-4,0,0,-4.8828125e-4,0,0)">&#10;   <path
   d="M -4,459 H 1135 V 606 H -4 Z"
   id="path38" />&#10;  </g><g
       id="bullet-char-template-61548"
       transform="matrix(4.8828125e-4,0,0,-4.8828125e-4,0,0)">&#10;   <path
   d="m 173,740 c 0,163 58,303 173,419 116,115 255,173 419,173 163,0 302,-58 418,-173 116,-116 174,-256 174,-419 0,-163 -58,-303 -174,-418 C 1067,206 928,148 765,148 601,148 462,206 346,322 231,437 173,577 173,740 Z"
   id="path41" />&#10;  </g></defs><g
     inkscape:label="Layer 1"
     inkscape:groupmode="layer"
     id="layer1"
     transform="translate(-25.832381,-46.614951)"><circle
       style="fill:#ffffff;fill-opacity:1;fill-rule:evenodd;stroke:none;stroke-width:7.086;stroke-linecap:round;stroke-linejoin:round;stroke-dasharray:none;stroke-opacity:1"
       id="circle1"
       cx="104.99999"
       cy="125.78256"
       r="75.624611" /><circle
       style="fill:none;fill-opacity:1;fill-rule:evenodd;stroke:#000000;stroke-width:7.086;stroke-linecap:round;stroke-linejoin:round;stroke-dasharray:none;stroke-opacity:1"
       id="circle6028"
       cx="104.99999"
       cy="125.78256"
       r="75.624611" /><path
       id="circle6025"
       style="fill:#ffffff;fill-opacity:1;fill-rule:evenodd;stroke:#000000;stroke-width:3.58581;stroke-linecap:round;stroke-linejoin:round;stroke-dasharray:none;stroke-opacity:1"
       d="M 105.14759,77.685181 40.151554,164.23907 a 75.624609,75.624609 0 0 0 15.077116,15.07712 l 99.52261,0.0202 a 75.624609,75.624609 0 0 0 15.11122,-15.11122 z" /><path
       id="path4990"
       style="fill:#000000;fill-opacity:1;fill-rule:evenodd;stroke:#000000;stroke-width:3.58581;stroke-linecap:round;stroke-linejoin:round;stroke-dasharray:none;stroke-opacity:1"
       d="m 142.08952,127.38706 -15.43524,23.59701 -7.45174,-11.35487 -12.59665,19.69337 -20.225629,-31.5805 -15.08074,23.5965 -9.935825,-14.72572 -21.051428,27.78693 a 75.624609,75.624609 0 0 0 14.729334,14.72934 l 100.006818,-0.0899 a 75.624609,75.624609 0 0 0 14.71383,-14.71383 z" /><circle
       style="fill:#ffffff;fill-opacity:1;fill-rule:evenodd;stroke:#000000;stroke-width:2.45743;stroke-linecap:round;stroke-linejoin:round;stroke-dasharray:none;stroke-opacity:1"
       id="path3913"
       cx="165.72513"
       cy="113.10242"
       r="1.7960689" /><circle
       style="fill:#ffffff;fill-opacity:1;fill-rule:evenodd;stroke:#000000;stroke-width:3.36584;stroke-linecap:round;stroke-linejoin:round;stroke-dasharray:none;stroke-opacity:1"
       id="path3913-3"
       cx="176.02289"
       cy="123.99602"
       inkscape:transform-center-x="12.30464"
       inkscape:transform-center-y="-12.344328"
       r="2.2730243" /><path
       style="fill:none;fill-opacity:1;fill-rule:evenodd;stroke:#000000;stroke-width:3.365;stroke-linecap:butt;stroke-linejoin:miter;stroke-dasharray:none;stroke-opacity:1"
       d="m 139.25101,93.854839 20.22581,26.967741"
       id="path3837-0" /><path
       style="fill:none;fill-opacity:1;fill-rule:evenodd;stroke:#000000;stroke-width:3.365;stroke-linecap:butt;stroke-linejoin:miter;stroke-dasharray:none;stroke-opacity:1"
       d="m 125.14617,89.685483 20.22581,26.967737"
       id="path3837" /><circle
       style="fill:#ffffff;fill-opacity:1;fill-rule:evenodd;stroke:#000000;stroke-width:3.72642;stroke-linecap:round;stroke-linejoin:round;stroke-dasharray:none;stroke-opacity:1"
       id="path3835"
       cx="155.13002"
       cy="132.44354"
       r="12.770902" /><path
       id="rect9258"
       style="fill:#000000;fill-opacity:1;fill-rule:evenodd;stroke:#000000;stroke-width:0.957001;stroke-linecap:round;stroke-linejoin:round;stroke-dasharray:none;stroke-opacity:1"
       d="m 38.837939,161.09663 a 75.624609,75.624609 0 0 0 66.161851,40.31072 75.624609,75.624609 0 0 0 66.16237,-40.31072 z" /></g></svg>
